<?xml version="1.0" encoding="utf-8"?><svg viewBox="0 0 28 28" xmlns="http://www.w3.org/2000/svg" xmlns:xlink="http://www.w3.org/1999/xlink"><style>:root>svg{display:none}:root>svg:target{display:block}</style><svg fill="none" viewBox="0 0 28 28" id="pint" xmlns="http://www.w3.org/2000/svg"><path d="M10.053 26.72c1.28.387 2.574.613 3.947.613A13.333 13.333 0 1 0 .667 14c0 5.667 3.56 10.533 8.586 12.453-.12-1.04-.24-2.76 0-3.946l1.534-6.587s-.387-.773-.387-2c0-1.84 1.147-3.213 2.453-3.213 1.147 0 1.68.84 1.68 1.92 0 1.146-.76 2.786-1.146 4.36-.227 1.306.693 2.453 2.026 2.453 2.374 0 4.214-2.533 4.214-6.107 0-3.2-2.294-5.386-5.587-5.386-3.76 0-5.973 2.8-5.973 5.746 0 1.147.373 2.307.986 3.067.12.08.12.187.08.387L8.747 18.6c0 .227-.147.307-.374.147C6.667 18 5.68 15.573 5.68 13.613c0-4.213 2.987-8.04 8.747-8.04 4.586 0 8.16 3.294 8.16 7.667 0 4.587-2.84 8.267-6.907 8.267-1.293 0-2.56-.694-3.013-1.507l-.894 3.16c-.306 1.147-1.146 2.68-1.72 3.6v-.04Z" fill="#fff"/></svg><svg fill="none" viewBox="0 0 24 24" id="skype" xmlns="http://www.w3.org/2000/svg"><path d="M20 4c2.76 2.72 3.8 6.52 3.147 10.067.546.96.853 2.08.853 3.266A6.667 6.667 0 0 1 17.333 24a6.59 6.59 0 0 1-3.266-.853C10.52 23.8 6.72 22.76 4 20 1.24 17.28.2 13.48.853 9.933A6.59 6.59 0 0 1 0 6.667 6.667 6.667 0 0 1 6.667 0a6.59 6.59 0 0 1 3.266.853C13.48.2 17.28 1.24 20 4Zm-7.947 14.88c3.827 0 5.734-1.84 5.734-4.32 0-1.587-.747-3.28-3.64-3.933l-2.654-.587c-1.013-.227-2.16-.533-2.16-1.48 0-.96.8-1.627 2.267-1.627 2.973 0 2.693 2.04 4.173 2.04.774 0 1.44-.453 1.44-1.24 0-1.826-2.92-3.2-5.4-3.2-2.68 0-5.546 1.147-5.546 4.187 0 1.467.52 3.027 3.4 3.747l3.586.906c1.08.267 1.347.867 1.347 1.427 0 .907-.907 1.8-2.547 1.8-3.213 0-2.773-2.467-4.493-2.467-.773 0-1.333.534-1.333 1.294 0 1.48 1.773 3.453 5.826 3.453Z" fill="#fff"/></svg><svg fill="none" viewBox="0 0 18 17" id="star" xmlns="http://www.w3.org/2000/svg"><path d="m9 14.27 4.15 2.51c.76.46 1.69-.22 1.49-1.08l-1.1-4.72 3.67-3.18c.67-.58.31-1.68-.57-1.75l-4.83-.41-1.89-4.46c-.34-.81-1.5-.81-1.84 0L6.19 5.63l-4.83.41C.48 6.11.12 7.21.79 7.79l3.67 3.18-1.1 4.72c-.2.86.73 1.54 1.49 1.08L9 14.27Z" fill="#F2BE22"/></svg><svg fill="none" viewBox="0 0 28 28" id="telega" xmlns="http://www.w3.org/2000/svg"><path d="M14 .667C6.64.667.667 6.64.667 14S6.64 27.333 14 27.333 27.333 21.36 27.333 14 21.36.667 14 .667Zm6.187 9.066c-.2 2.107-1.067 7.227-1.507 9.587-.187 1-.56 1.333-.907 1.373-.773.067-1.36-.506-2.106-1-1.174-.773-1.84-1.253-2.974-2-1.32-.866-.466-1.346.294-2.12.2-.2 3.613-3.306 3.68-3.586a.267.267 0 0 0-.067-.24c-.08-.067-.187-.04-.28-.027-.12.027-1.987 1.267-5.627 3.72-.533.36-1.013.547-1.44.533-.48-.013-1.386-.266-2.066-.493-.84-.267-1.494-.413-1.44-.88.026-.24.36-.48.986-.733 3.894-1.694 6.48-2.814 7.774-3.347 3.706-1.547 4.466-1.813 4.973-1.813.107 0 .36.026.52.16a.53.53 0 0 1 .187.36c-.014.08.013.32 0 .506Z" fill="#fff"/></svg><svg fill="none" viewBox="0 0 27 27" id="vk" xmlns="http://www.w3.org/2000/svg"><path d="M13.36 0C5.981 0 0 5.98 0 13.36c0 7.378 5.981 13.36 13.36 13.36s13.36-5.982 13.36-13.36C26.72 5.98 20.739 0 13.36 0Zm5.138 15.073s1.182 1.166 1.472 1.707c.009.012.013.023.016.028.118.2.146.354.087.47-.097.191-.431.286-.545.294H17.44c-.144 0-.448-.037-.815-.29-.283-.198-.561-.522-.832-.838-.405-.47-.756-.877-1.11-.877a.427.427 0 0 0-.132.02c-.267.087-.61.468-.61 1.484 0 .318-.25.5-.427.5h-.956c-.325 0-2.022-.114-3.525-1.7-1.84-1.94-3.496-5.835-3.51-5.87-.104-.253.112-.388.347-.388h2.108c.282 0 .373.172.437.323.076.177.351.88.803 1.67.734 1.289 1.183 1.812 1.544 1.812a.418.418 0 0 0 .193-.05c.47-.261.383-1.938.362-2.286 0-.066-.001-.75-.242-1.079-.173-.238-.466-.328-.644-.362.072-.1.167-.18.277-.235.322-.161.904-.185 1.482-.185h.321c.626.008.788.049 1.015.106.459.11.469.406.428 1.42-.012.289-.025.614-.025.998 0 .084-.004.173-.004.268-.014.516-.03 1.102.334 1.343a.3.3 0 0 0 .159.046c.126 0 .508 0 1.54-1.772.319-.57.595-1.163.828-1.773.021-.036.082-.148.155-.19a.37.37 0 0 1 .172-.041h2.479c.27 0 .455.04.49.145.061.165-.011.67-1.143 2.203l-.505.666c-1.026 1.345-1.026 1.413.064 2.433Z" fill="#fff"/></svg></svg>